<svg width="32" height="32" viewBox="0 0 32 32" fill="none" xmlns="http://www.w3.org/2000/svg">
<path fill-rule="evenodd" clip-rule="evenodd" d="M6.85677 5.98071C7.09774 5.57911 7.53175 5.33337 8.0001 5.33337H24.0001C24.4684 5.33337 24.9025 5.57911 25.1434 5.98071L29.1434 12.6474C29.4441 13.1485 29.3834 13.7869 28.9938 14.2224L17.6604 26.8891C17.647 26.9041 17.6332 26.9188 17.6191 26.9332C17.4081 27.1486 17.1562 27.3197 16.8782 27.4365C16.6002 27.5533 16.3016 27.6135 16.0001 27.6135C15.6985 27.6135 15.4 27.5533 15.122 27.4365C14.844 27.3197 14.5921 27.1486 14.381 26.9332C14.367 26.9188 14.3532 26.9041 14.3398 26.8891L3.00644 14.2224C2.61679 13.7869 2.55612 13.1485 2.85677 12.6474L6.85677 5.98071ZM8.75502 8.00004L5.64903 13.1767L16.0001 24.7455L26.3512 13.1767L23.2452 8.00004H8.75502Z" fill="#9747FF"/>
<path fill-rule="evenodd" clip-rule="evenodd" d="M12.1528 10.5901C12.7842 10.9689 12.989 11.7879 12.6101 12.4194L12.3199 12.903L14.32 15.1031C14.8154 15.648 14.7752 16.4913 14.2303 16.9866C13.6854 17.482 12.8422 17.4418 12.3468 16.8969L9.68018 13.9636C9.28447 13.5283 9.22078 12.8851 9.52344 12.3807L10.3234 11.0474C10.7023 10.4159 11.5213 10.2112 12.1528 10.5901Z" fill="#9747FF"/>
</svg>
