<svg width="32" height="32" viewBox="0 0 32 32" fill="none" xmlns="http://www.w3.org/2000/svg">
<path fill-rule="evenodd" clip-rule="evenodd" d="M11.2151 6.68162C10.483 6.60352 9.74266 6.67786 9.04068 6.89994C8.3387 7.12203 7.6903 7.48706 7.13633 7.97205C6.58235 8.45704 6.1348 9.05147 5.82185 9.71792C5.50889 10.3844 5.33732 11.1084 5.31793 11.8444C5.29854 12.5804 5.43176 13.3125 5.70919 13.9945C5.98663 14.6765 6.40227 15.2937 6.92994 15.8072L6.93836 15.8154L16.0001 24.7901L25.0618 15.8154C25.0895 15.788 25.118 15.7621 25.1473 15.7377C25.6323 15.2403 26.0156 14.6526 26.2755 14.0075C26.5498 13.3267 26.6806 12.5966 26.6597 11.8629C26.6388 11.1293 26.4667 10.4078 26.1542 9.74366C25.8417 9.07954 25.3954 8.48709 24.8434 8.00336C24.2914 7.51964 23.6455 7.15507 22.9461 6.93246C22.2467 6.70985 21.5088 6.63401 20.7788 6.70966C20.0487 6.78532 19.3421 7.01086 18.7032 7.37215C18.0643 7.73345 17.5069 8.22273 17.0658 8.80938C16.8131 9.14539 16.4168 9.34257 15.9964 9.3414C15.576 9.34023 15.1807 9.14085 14.9299 8.80343C14.4907 8.2125 13.9339 7.7189 13.2946 7.35373C12.6553 6.98856 11.9473 6.75972 11.2151 6.68162ZM26.8463 17.8012L16.9383 27.6141C16.4187 28.1287 15.5815 28.1287 15.0618 27.6141L5.0658 17.714C4.27638 16.9447 3.65446 16.0204 3.23908 14.9993C2.82293 13.9763 2.62311 12.8782 2.65219 11.7742C2.68127 10.6702 2.93863 9.58413 3.40806 8.58445C3.87749 7.58477 4.54882 6.69312 5.37979 5.96564C6.21075 5.23816 7.18334 4.69062 8.23631 4.35748C9.28928 4.02435 10.3998 3.91285 11.498 4.03C12.5962 4.14715 13.6582 4.49041 14.6172 5.03817C15.1159 5.32303 15.5812 5.65999 16.0055 6.04249C16.4295 5.66462 16.8936 5.33197 17.3905 5.05094C18.3489 4.50899 19.4088 4.17069 20.5039 4.0572C21.599 3.94372 22.7057 4.05749 23.7548 4.3914C24.8039 4.72531 25.7728 5.27217 26.6009 5.99775C27.4289 6.72334 28.0983 7.61203 28.5671 8.6082C29.0359 9.60437 29.294 10.6866 29.3253 11.7871C29.3566 12.8876 29.1604 13.9828 28.749 15.004C28.3376 16.0252 27.7198 16.9505 26.9344 17.722C26.9059 17.7499 26.8765 17.7763 26.8463 17.8012Z" fill="#9747FF"/>
<path fill-rule="evenodd" clip-rule="evenodd" d="M16.9429 7.05726C17.4636 7.57796 17.4636 8.42218 16.9429 8.94288L12.5524 13.3334L13.2762 14.0573C13.6755 14.4566 14.3246 14.4566 14.7239 14.0573L16.0573 12.7239C17.103 11.6782 18.5212 11.0908 20.0001 11.0908C21.4789 11.0908 22.8972 11.6782 23.9429 12.7239L26.9429 15.7239C27.4636 16.2446 27.4636 17.0888 26.9429 17.6095C26.4222 18.1302 25.578 18.1302 25.0573 17.6095L22.0573 14.6096C21.5117 14.064 20.7717 13.7574 20.0001 13.7574C19.2285 13.7574 18.4885 14.064 17.9429 14.6096L16.6096 15.9429C15.1689 17.3836 12.8313 17.3836 11.3906 15.9429L10.6666 15.2189C10.1667 14.7188 9.88569 14.0405 9.88569 13.3334C9.88569 12.6263 10.1665 11.9481 10.6665 11.4481L15.0573 7.05726C15.578 6.53656 16.4222 6.53656 16.9429 7.05726Z" fill="#9747FF"/>
<path fill-rule="evenodd" clip-rule="evenodd" d="M15.7239 19.7239C16.2446 19.2032 17.0889 19.2032 17.6096 19.7239L20.2762 22.3906C20.7969 22.9113 20.7969 23.7555 20.2762 24.2762C19.7555 24.7969 18.9113 24.7969 18.3906 24.2762L15.7239 21.6095C15.2032 21.0888 15.2032 20.2446 15.7239 19.7239Z" fill="#9747FF"/>
<path fill-rule="evenodd" clip-rule="evenodd" d="M19.0573 16.3906C19.578 15.8699 20.4222 15.8699 20.9429 16.3906L23.6096 19.0573C24.1303 19.578 24.1303 20.4222 23.6096 20.9429C23.0889 21.4636 22.2446 21.4636 21.7239 20.9429L19.0573 18.2762C18.5366 17.7555 18.5366 16.9113 19.0573 16.3906Z" fill="#9747FF"/>
</svg>
