<svg width="32" height="32" viewBox="0 0 32 32" fill="none" xmlns="http://www.w3.org/2000/svg">
<path fill-rule="evenodd" clip-rule="evenodd" d="M12.2288 10.8954C13.229 9.89517 14.5855 9.33327 16 9.33327C17.4145 9.33327 18.771 9.89517 19.7712 10.8954C20.7714 11.8956 21.3333 13.2521 21.3333 14.6666C21.3333 16.0811 20.7714 17.4376 19.7712 18.4378C18.771 19.438 17.4145 19.9999 16 19.9999C14.5855 19.9999 13.229 19.438 12.2288 18.4378C11.2286 17.4376 10.6667 16.0811 10.6667 14.6666C10.6667 13.2521 11.2286 11.8956 12.2288 10.8954ZM16 11.9999C15.2928 11.9999 14.6145 12.2809 14.1144 12.781C13.6143 13.2811 13.3333 13.9594 13.3333 14.6666C13.3333 15.3738 13.6143 16.0521 14.1144 16.5522C14.6145 17.0523 15.2928 17.3333 16 17.3333C16.7072 17.3333 17.3855 17.0523 17.8856 16.5522C18.3857 16.0521 18.6667 15.3738 18.6667 14.6666C18.6667 13.9594 18.3857 13.2811 17.8856 12.781C17.3855 12.2809 16.7072 11.9999 16 11.9999Z" fill="#9747FF"/>
<path fill-rule="evenodd" clip-rule="evenodd" d="M16 5.33366C14.1541 5.33366 12.3496 5.88104 10.8147 6.90658C9.27988 7.93211 8.08361 9.38975 7.37718 11.0952C6.67074 12.8006 6.48588 14.6772 6.84597 16.4877C7.20605 18.2981 8.09487 19.9611 9.40004 21.2663V21.2663L15.0583 26.9233C15.3083 27.1731 15.6473 27.3134 16.0007 27.3134C16.3541 27.3134 16.693 27.1731 16.943 26.9233L22.5998 21.2665V21.2665C23.9051 19.9612 24.7939 18.2981 25.154 16.4877C25.5141 14.6772 25.3293 12.8006 24.6228 11.0952C23.9164 9.38975 22.7201 7.93211 21.1853 6.90658C19.6504 5.88104 17.8459 5.33366 16 5.33366ZM9.33323 4.68931C11.3066 3.37076 13.6267 2.66699 16 2.66699C18.3734 2.66699 20.6934 3.37076 22.6668 4.68931C24.6402 6.00786 26.1782 7.88197 27.0865 10.0746C27.9948 12.2673 28.2324 14.6801 27.7695 17.0078C27.3065 19.3356 26.1637 21.4738 24.4855 23.1521L18.8281 28.8094C18.0781 29.5587 17.0608 29.98 16.0007 29.98C14.9405 29.98 13.9237 29.5592 13.1737 28.8099L7.51464 23.1522C5.83647 21.4739 4.69351 19.3356 4.23054 17.0078C3.76756 14.6801 4.00524 12.2673 4.91351 10.0746C5.82178 7.88197 7.35985 6.00786 9.33323 4.68931Z" fill="#9747FF"/>
</svg>
