<svg width="16" height="12" viewBox="0 0 16 12" fill="none" xmlns="http://www.w3.org/2000/svg">
<path fill-rule="evenodd" clip-rule="evenodd" d="M0.500031 0.999959C0.500031 0.539722 0.873127 0.166626 1.33336 0.166626H14.6667C15.1269 0.166626 15.5 0.539722 15.5 0.999959C15.5 1.4602 15.1269 1.83329 14.6667 1.83329H1.33336C0.873127 1.83329 0.500031 1.4602 0.500031 0.999959Z" fill="#2ec1ed"/>
<path fill-rule="evenodd" clip-rule="evenodd" d="M0.500031 5.99996C0.500031 5.53972 0.873127 5.16663 1.33336 5.16663H14.6667C15.1269 5.16663 15.5 5.53972 15.5 5.99996C15.5 6.4602 15.1269 6.83329 14.6667 6.83329H1.33336C0.873127 6.83329 0.500031 6.4602 0.500031 5.99996Z" fill="#2ec1ed"/>
<path fill-rule="evenodd" clip-rule="evenodd" d="M0.500031 11C0.500031 10.5397 0.873127 10.1666 1.33336 10.1666H14.6667C15.1269 10.1666 15.5 10.5397 15.5 11C15.5 11.4602 15.1269 11.8333 14.6667 11.8333H1.33336C0.873127 11.8333 0.500031 11.4602 0.500031 11Z" fill="#2ec1ed"/>
</svg>
