<svg width="28" height="28" viewBox="0 0 28 28" fill="none" xmlns="http://www.w3.org/2000/svg">
<path fill-rule="evenodd" clip-rule="evenodd" d="M11.1717 12.5049C11.9218 11.7547 12.9392 11.3333 14.0001 11.3333C15.0609 11.3333 16.0784 11.7547 16.8285 12.5049C17.5787 13.255 18.0001 14.2724 18.0001 15.3333C18.0001 16.3942 17.5787 17.4116 16.8285 18.1617C16.0784 18.9119 15.0609 19.3333 14.0001 19.3333C12.9392 19.3333 11.9218 18.9119 11.1717 18.1617C10.4215 17.4116 10.0001 16.3942 10.0001 15.3333C10.0001 14.2724 10.4215 13.255 11.1717 12.5049ZM14.0001 14C13.6465 14 13.3073 14.1404 13.0573 14.3905C12.8072 14.6405 12.6667 14.9797 12.6667 15.3333C12.6667 15.6869 12.8072 16.0261 13.0573 16.2761C13.3073 16.5262 13.6465 16.6666 14.0001 16.6666C14.3537 16.6666 14.6928 16.5262 14.9429 16.2761C15.1929 16.0261 15.3334 15.6869 15.3334 15.3333C15.3334 14.9797 15.1929 14.6405 14.9429 14.3905C14.6928 14.1404 14.3537 14 14.0001 14Z" fill="#fff"/>
<path fill-rule="evenodd" clip-rule="evenodd" d="M11.3334 23.3333C10.9798 23.3333 10.6407 23.4738 10.3906 23.7238C10.1406 23.9739 10.0001 24.313 10.0001 24.6666V26C10.0001 26.7363 9.40313 27.3333 8.66675 27.3333C7.93037 27.3333 7.33341 26.7363 7.33341 26V24.6666C7.33341 23.6058 7.75484 22.5883 8.50499 21.8382C9.25513 21.0881 10.2725 20.6666 11.3334 20.6666H16.6667C17.7276 20.6666 18.745 21.0881 19.4952 21.8382C20.2453 22.5883 20.6667 23.6058 20.6667 24.6666V26C20.6667 26.7363 20.0698 27.3333 19.3334 27.3333C18.597 27.3333 18.0001 26.7363 18.0001 26V24.6666C18.0001 24.313 17.8596 23.9739 17.6096 23.7238C17.3595 23.4738 17.0204 23.3333 16.6667 23.3333H11.3334Z" fill="#fff"/>
<path fill-rule="evenodd" clip-rule="evenodd" d="M17.8383 1.8382C18.5885 1.08805 19.6059 0.666626 20.6667 0.666626C21.7276 0.666626 22.745 1.08805 23.4952 1.8382C24.2453 2.58834 24.6667 3.60576 24.6667 4.66663C24.6667 5.72749 24.2453 6.74491 23.4952 7.49505C22.745 8.2452 21.7276 8.66663 20.6667 8.66663C19.6059 8.66663 18.5885 8.2452 17.8383 7.49505C17.0882 6.74491 16.6667 5.72749 16.6667 4.66663C16.6667 3.60576 17.0882 2.58834 17.8383 1.8382ZM20.6667 3.33329C20.3131 3.33329 19.974 3.47377 19.7239 3.72382C19.4739 3.97387 19.3334 4.313 19.3334 4.66663C19.3334 5.02025 19.4739 5.35939 19.7239 5.60944C19.974 5.85948 20.3131 5.99996 20.6667 5.99996C21.0204 5.99996 21.3595 5.85948 21.6096 5.60944C21.8596 5.35939 22.0001 5.02025 22.0001 4.66663C22.0001 4.313 21.8596 3.97387 21.6096 3.72382C21.3595 3.47377 21.0204 3.33329 20.6667 3.33329Z" fill="#fff"/>
<path fill-rule="evenodd" clip-rule="evenodd" d="M19.3334 11.3333C19.3334 10.5969 19.9304 9.99996 20.6667 9.99996H23.3334C24.3943 9.99996 25.4117 10.4214 26.1618 11.1715C26.912 11.9217 27.3334 12.9391 27.3334 14V15.3333C27.3334 16.0697 26.7365 16.6666 26.0001 16.6666C25.2637 16.6666 24.6667 16.0697 24.6667 15.3333V14C24.6667 13.6463 24.5263 13.3072 24.2762 13.0572C24.0262 12.8071 23.687 12.6666 23.3334 12.6666H20.6667C19.9304 12.6666 19.3334 12.0697 19.3334 11.3333Z" fill="#fff"/>
<path fill-rule="evenodd" clip-rule="evenodd" d="M4.50499 1.8382C5.25513 1.08805 6.27255 0.666626 7.33341 0.666626C8.39428 0.666626 9.4117 1.08805 10.1618 1.8382C10.912 2.58834 11.3334 3.60576 11.3334 4.66663C11.3334 5.72749 10.912 6.74491 10.1618 7.49505C9.4117 8.2452 8.39428 8.66663 7.33341 8.66663C6.27255 8.66663 5.25513 8.2452 4.50499 7.49505C3.75484 6.74491 3.33341 5.72749 3.33341 4.66663C3.33341 3.60576 3.75484 2.58834 4.50499 1.8382ZM7.33341 3.33329C6.97979 3.33329 6.64065 3.47377 6.39061 3.72382C6.14056 3.97387 6.00008 4.313 6.00008 4.66663C6.00008 5.02025 6.14056 5.35939 6.39061 5.60944C6.64065 5.85948 6.97979 5.99996 7.33341 5.99996C7.68704 5.99996 8.02618 5.85948 8.27622 5.60944C8.52627 5.35939 8.66675 5.02025 8.66675 4.66663C8.66675 4.313 8.52627 3.97387 8.27622 3.72382C8.02618 3.47377 7.68704 3.33329 7.33341 3.33329Z" fill="#fff"/>
<path fill-rule="evenodd" clip-rule="evenodd" d="M4.66675 12.6666C4.31313 12.6666 3.97399 12.8071 3.72394 13.0572C3.47389 13.3072 3.33341 13.6463 3.33341 14V15.3333C3.33341 16.0697 2.73646 16.6666 2.00008 16.6666C1.2637 16.6666 0.666748 16.0697 0.666748 15.3333V14C0.666748 12.9391 1.08818 11.9217 1.83832 11.1715C2.58847 10.4214 3.60588 9.99996 4.66675 9.99996H7.33341C8.06979 9.99996 8.66675 10.5969 8.66675 11.3333C8.66675 12.0697 8.06979 12.6666 7.33341 12.6666H4.66675Z" fill="#fff"/>
</svg>
