<svg width="20" height="20" viewBox="0 0 20 20" fill="none" xmlns="http://www.w3.org/2000/svg">
<path fill-rule="evenodd" clip-rule="evenodd" d="M4.1665 4.16618C3.94549 4.16618 3.73353 4.25398 3.57725 4.41026C3.42601 4.56149 3.33891 4.76488 3.33344 4.97815C3.5251 8.01476 4.81783 10.8776 6.96978 13.0296C9.12174 15.1815 11.9846 16.4742 15.0212 16.6659C15.2345 16.6604 15.4379 16.5733 15.5891 16.4221C15.7454 16.2658 15.8332 16.0539 15.8332 15.8328V13.0637L12.8493 11.8701L11.9644 13.3449C11.7413 13.7168 11.2702 13.8554 10.8812 13.6636C8.90712 12.69 7.30939 11.0922 6.33579 9.11811C6.14396 8.72914 6.28253 8.25807 6.65442 8.03493L8.1292 7.15007L6.93564 4.16618H4.1665ZM2.39874 3.23174C2.86758 2.7629 3.50346 2.49951 4.1665 2.49951H7.49984C7.84059 2.49951 8.14701 2.70697 8.27357 3.02335L9.94023 7.19002C10.0921 7.56978 9.94598 8.00365 9.59525 8.21409L8.20025 9.05109C8.8868 10.1708 9.82857 11.1125 10.9483 11.7991L11.7853 10.4041C11.9957 10.0534 12.4296 9.90721 12.8093 10.0591L16.976 11.7258C17.2924 11.8523 17.4998 12.1588 17.4998 12.4995V15.8328C17.4998 16.4959 17.2364 17.1318 16.7676 17.6006C16.2988 18.0695 15.6629 18.3328 14.9998 18.3328C14.983 18.3328 14.9661 18.3323 14.9493 18.3313C11.4955 18.1214 8.23797 16.6548 5.79127 14.2081C3.34458 11.7614 1.87793 8.50384 1.66804 5.05006C1.66702 5.03323 1.6665 5.01637 1.6665 4.99951C1.6665 4.33647 1.9299 3.70059 2.39874 3.23174Z" fill="#fff"/>
</svg>
