<svg width="32" height="32" viewBox="0 0 32 32" fill="none" xmlns="http://www.w3.org/2000/svg">
<path fill-rule="evenodd" clip-rule="evenodd" d="M10.8976 3.68157C12.5153 3.0115 14.2491 2.66663 16.0001 2.66663C17.751 2.66663 19.4849 3.0115 21.1025 3.68157C22.7202 4.35163 24.1901 5.33375 25.4282 6.57187C26.6663 7.80998 27.6484 9.27984 28.3185 10.8975C28.9885 12.5152 29.3334 14.249 29.3334 16C29.3334 17.7509 28.9885 19.4847 28.3185 21.1024C27.6484 22.7201 26.6663 24.1899 25.4282 25.428C24.1901 26.6662 22.7202 27.6483 21.1025 28.3184C19.4849 28.9884 17.751 29.3333 16.0001 29.3333C14.2491 29.3333 12.5153 28.9884 10.8976 28.3184C9.27996 27.6483 7.8101 26.6662 6.57199 25.428C5.33388 24.1899 4.35175 22.7201 3.68169 21.1024C3.01162 19.4847 2.66675 17.7509 2.66675 16C2.66675 14.249 3.01162 12.5152 3.68169 10.8975C4.35175 9.27984 5.33388 7.80998 6.57199 6.57187C7.81011 5.33375 9.27996 4.35163 10.8976 3.68157ZM16.0001 5.33329C14.5993 5.33329 13.2123 5.60919 11.9181 6.14524C10.624 6.68129 9.4481 7.467 8.45761 8.45749C7.46712 9.44798 6.68142 10.6239 6.14537 11.918C5.60932 13.2121 5.33341 14.5992 5.33341 16C5.33341 17.4007 5.60932 18.7878 6.14537 20.0819C6.68142 21.3761 7.46712 22.5519 8.45761 23.5424C9.4481 24.5329 10.624 25.3186 11.9181 25.8547C13.2123 26.3907 14.5993 26.6666 16.0001 26.6666C17.4008 26.6666 18.7879 26.3907 20.082 25.8547C21.3762 25.3186 22.5521 24.5329 23.5426 23.5424C24.533 22.5519 25.3187 21.3761 25.8548 20.0819C26.3908 18.7878 26.6667 17.4007 26.6667 16C26.6667 14.5992 26.3908 13.2121 25.8548 11.918C25.3187 10.6239 24.533 9.44798 23.5426 8.45749C22.5521 7.46699 21.3762 6.68129 20.082 6.14524C18.7879 5.60919 17.4008 5.33329 16.0001 5.33329Z" fill="#fff"/>
<path fill-rule="evenodd" clip-rule="evenodd" d="M15.2605 14.8906C15.8732 14.4821 16.701 14.6477 17.1095 15.2604L19.7761 19.2604C20.1846 19.8731 20.0191 20.7009 19.4063 21.1094C18.7936 21.5178 17.9658 21.3523 17.5573 20.7396L14.8907 16.7396C14.4822 16.1269 14.6478 15.299 15.2605 14.8906Z" fill="#fff"/>
<path fill-rule="evenodd" clip-rule="evenodd" d="M16.0001 7.99996C16.7365 7.99996 17.3334 8.59691 17.3334 9.33329V16C17.3334 16.7363 16.7365 17.3333 16.0001 17.3333C15.2637 17.3333 14.6667 16.7363 14.6667 16V9.33329C14.6667 8.59691 15.2637 7.99996 16.0001 7.99996Z" fill="#fff"/>
</svg>
