<svg width="54" height="52" viewBox="0 0 54 52" fill="none" xmlns="http://www.w3.org/2000/svg">
<path d="M36.1178 7.86782L34.6696 9.57909L26.8903 0L19.1082 9.58265L17.6591 7.87157L2.05176 21.8584L26.8884 52L51.7251 21.8603L36.1178 7.86782ZM26.9046 22.9813L26.8865 22.9608L26.8903 22.957L26.9046 22.9813ZM13.8376 21.8584H17.6591L26.8865 33.0661L36.1178 21.8584H39.9392L26.8886 37.7038L13.8376 21.8584Z" fill="#8425FF"/>
<path d="M36.1178 7.86781L26.8903 18.7716L17.6591 7.87157L2.05176 21.8584L26.8884 52L51.7251 21.8603L36.1178 7.86781ZM26.8903 22.957L26.9047 22.9813L26.8865 22.9608L26.8903 22.957ZM26.8886 37.7038L13.8376 21.8584H17.6591L26.8865 33.0661L36.1178 21.8584H39.9392L26.8886 37.7038Z" fill="url(#paint0_linear_2001_4943)"/>
<path d="M36.1178 7.86781L26.8904 18.7716L17.6592 7.87157V21.8584L26.8866 33.0736L36.1178 21.8584H39.9393L26.8887 37.7038L26.8885 52L51.7252 21.8603L36.1178 7.86781ZM26.8901 22.9647L26.8904 22.9644V22.9569L26.9047 22.9813L26.8901 22.9647Z" fill="url(#paint1_linear_2001_4943)"/>
<path d="M26.8905 0L19.1084 9.58264L26.8905 18.7716L34.6697 9.5791L26.8905 0Z" fill="url(#paint2_linear_2001_4943)"/>
<path d="M34.6698 9.5791L26.8905 0V18.7716L26.8867 33.0624L36.1179 21.8584V7.86782L34.6698 9.5791Z" fill="url(#paint3_linear_2001_4943)"/>
<defs>
<linearGradient id="paint0_linear_2001_4943" x1="26.8884" y1="42.5865" x2="26.8884" y2="-5.40942" gradientUnits="userSpaceOnUse">
<stop stop-color="white" stop-opacity="0"/>
<stop offset="1" stop-color="white" stop-opacity="0.8"/>
</linearGradient>
<linearGradient id="paint1_linear_2001_4943" x1="6.34214" y1="29.9339" x2="48.9667" y2="29.9339" gradientUnits="userSpaceOnUse">
<stop stop-color="white" stop-opacity="0"/>
<stop offset="1" stop-color="white" stop-opacity="0.6"/>
</linearGradient>
<linearGradient id="paint2_linear_2001_4943" x1="26.8891" y1="-3.62925" x2="26.8891" y2="16.8698" gradientUnits="userSpaceOnUse">
<stop stop-color="white" stop-opacity="0.6"/>
<stop offset="1" stop-color="white" stop-opacity="0.2"/>
</linearGradient>
<linearGradient id="paint3_linear_2001_4943" x1="31.5023" y1="35.3038" x2="31.5023" y2="7.26468" gradientUnits="userSpaceOnUse">
<stop stop-color="white" stop-opacity="0.6"/>
<stop offset="1" stop-color="white" stop-opacity="0.2"/>
</linearGradient>
</defs>
</svg>
