<svg width="32" height="38" viewBox="0 0 32 38" fill="none" xmlns="http://www.w3.org/2000/svg">
<g filter="url(#filter0_d_2001_1318)">
<path fill-rule="evenodd" clip-rule="evenodd" d="M5.17157 22.5049C5.92172 21.7547 6.93913 21.3333 8 21.3333C9.06087 21.3333 10.0783 21.7547 10.8284 22.5049C11.5786 23.255 12 24.2724 12 25.3333C12 26.3942 11.5786 27.4116 10.8284 28.1617C10.0783 28.9119 9.06087 29.3333 8 29.3333C6.93913 29.3333 5.92172 28.9119 5.17157 28.1617C4.42143 27.4116 4 26.3942 4 25.3333C4 24.2724 4.42143 23.255 5.17157 22.5049ZM8 24C7.64638 24 7.30724 24.1404 7.05719 24.3905C6.80714 24.6405 6.66667 24.9797 6.66667 25.3333C6.66667 25.6869 6.80714 26.0261 7.05719 26.2761C7.30724 26.5261 7.64638 26.6666 8 26.6666C8.35362 26.6666 8.69276 26.5261 8.94281 26.2761C9.19286 26.0261 9.33333 25.6869 9.33333 25.3333C9.33333 24.9797 9.19286 24.6405 8.94281 24.3905C8.69276 24.1404 8.35362 24 8 24Z" fill="#fff"/>
<path fill-rule="evenodd" clip-rule="evenodd" d="M19.8382 22.5049C20.5884 21.7547 21.6058 21.3333 22.6667 21.3333C23.7275 21.3333 24.7449 21.7547 25.4951 22.5049C26.2452 23.255 26.6667 24.2724 26.6667 25.3333C26.6667 26.3942 26.2452 27.4116 25.4951 28.1617C24.7449 28.9119 23.7275 29.3333 22.6667 29.3333C21.6058 29.3333 20.5884 28.9119 19.8382 28.1617C19.0881 27.4116 18.6667 26.3942 18.6667 25.3333C18.6667 24.2724 19.0881 23.255 19.8382 22.5049ZM22.6667 24C22.313 24 21.9739 24.1404 21.7239 24.3905C21.4738 24.6405 21.3333 24.9797 21.3333 25.3333C21.3333 25.6869 21.4738 26.0261 21.7239 26.2761C21.9739 26.5262 22.313 26.6666 22.6667 26.6666C23.0203 26.6666 23.3594 26.5262 23.6095 26.2761C23.8595 26.0261 24 25.6869 24 25.3333C24 24.9797 23.8595 24.6405 23.6095 24.3905C23.3594 24.1404 23.0203 24 22.6667 24Z" fill="#fff"/>
<path fill-rule="evenodd" clip-rule="evenodd" d="M4 3.99996C4 3.26358 4.59695 2.66663 5.33333 2.66663H8C8.73638 2.66663 9.33333 3.26358 9.33333 3.99996V21.3333H22.6667C23.403 21.3333 24 21.9302 24 22.6666C24 23.403 23.403 24 22.6667 24H8C7.26362 24 6.66667 23.403 6.66667 22.6666V5.33329H5.33333C4.59695 5.33329 4 4.73634 4 3.99996Z" fill="#fff"/>
<path fill-rule="evenodd" clip-rule="evenodd" d="M6.67006 6.57163C6.72252 5.83712 7.36049 5.28422 8.095 5.33668L26.7617 6.67001C27.1307 6.69637 27.4722 6.87487 27.7044 7.16282C27.9367 7.45077 28.0389 7.82228 27.9866 8.18852L26.6533 17.5219C26.5594 18.1787 25.9969 18.6666 25.3333 18.6666H8C7.26362 18.6666 6.66667 18.0697 6.66667 17.3333C6.66667 16.5969 7.26362 16 8 16H24.1769L25.1444 9.22795L7.905 7.99657C7.1705 7.94411 6.61759 7.30614 6.67006 6.57163Z" fill="#fff"/>
</g>
<defs>
<filter id="filter0_d_2001_1318" x="-4" y="0" width="40" height="40" filterUnits="userSpaceOnUse" color-interpolation-filters="sRGB">
<feFlood flood-opacity="0" result="BackgroundImageFix"/>
<feColorMatrix in="SourceAlpha" type="matrix" values="0 0 0 0 0 0 0 0 0 0 0 0 0 0 0 0 0 0 127 0" result="hardAlpha"/>
<feOffset dy="4"/>
<feGaussianBlur stdDeviation="2"/>
<feComposite in2="hardAlpha" operator="out"/>
<feColorMatrix type="matrix" values="0 0 0 0 0 0 0 0 0 0 0 0 0 0 0 0 0 0 0.25 0"/>
<feBlend mode="normal" in2="BackgroundImageFix" result="effect1_dropShadow_2001_1318"/>
<feBlend mode="normal" in="SourceGraphic" in2="effect1_dropShadow_2001_1318" result="shape"/>
</filter>
</defs>
</svg>
