<svg width="20" height="20" viewBox="0 0 20 20" fill="none" xmlns="http://www.w3.org/2000/svg">
<path fill-rule="evenodd" clip-rule="evenodd" d="M4.16659 4.99967C3.94558 4.99967 3.73362 5.08747 3.57734 5.24375C3.42106 5.40003 3.33326 5.61199 3.33326 5.83301V14.1663C3.33326 14.3874 3.42106 14.5993 3.57734 14.7556C3.73362 14.9119 3.94558 14.9997 4.16659 14.9997H15.8333C16.0543 14.9997 16.2662 14.9119 16.4225 14.7556C16.5788 14.5993 16.6666 14.3874 16.6666 14.1663V5.83301C16.6666 5.61199 16.5788 5.40003 16.4225 5.24375C16.2662 5.08747 16.0543 4.99967 15.8333 4.99967H4.16659ZM2.39883 4.06524C2.86767 3.5964 3.50355 3.33301 4.16659 3.33301H15.8333C16.4963 3.33301 17.1322 3.5964 17.601 4.06524C18.0699 4.53408 18.3333 5.16997 18.3333 5.83301V14.1663C18.3333 14.8294 18.0699 15.4653 17.601 15.9341C17.1322 16.4029 16.4963 16.6663 15.8333 16.6663H4.16659C3.50355 16.6663 2.86767 16.4029 2.39883 15.9341C1.92998 15.4653 1.66659 14.8294 1.66659 14.1663V5.83301C1.66659 5.16997 1.92998 4.53408 2.39883 4.06524Z" fill="#2ec1ed"/>
<path fill-rule="evenodd" clip-rule="evenodd" d="M1.80655 5.37076C2.06184 4.98782 2.57924 4.88434 2.96218 5.13963L9.99993 9.83147L17.0377 5.13963C17.4206 4.88434 17.938 4.98782 18.1933 5.37076C18.4486 5.7537 18.3451 6.27109 17.9622 6.52638L10.4622 11.5264C10.1823 11.713 9.81759 11.713 9.53768 11.5264L2.03768 6.52638C1.65474 6.27109 1.55126 5.7537 1.80655 5.37076Z" fill="#2ec1ed"/>
</svg>
