<svg width="20" height="20" viewBox="0 0 20 20" fill="none" xmlns="http://www.w3.org/2000/svg">
<path fill-rule="evenodd" clip-rule="evenodd" d="M9.41061 1.91009C9.73604 1.58466 10.2637 1.58466 10.5891 1.91009L18.0891 9.41009C18.3274 9.64843 18.3987 10.0069 18.2698 10.3183C18.1408 10.6296 17.8369 10.8327 17.4999 10.8327H15.8332C15.373 10.8327 14.9999 10.4596 14.9999 9.99935C14.9999 9.64201 15.2248 9.3372 15.5408 9.21877L9.99986 3.67786L4.45895 9.21877C4.77494 9.3372 4.99986 9.64201 4.99986 9.99935C4.99986 10.4596 4.62677 10.8327 4.16653 10.8327H2.49986C2.16281 10.8327 1.85895 10.6296 1.72996 10.3183C1.60098 10.0069 1.67227 9.64843 1.91061 9.41009L9.41061 1.91009Z" fill="#2ec1ed"/>
<path fill-rule="evenodd" clip-rule="evenodd" d="M4.16653 9.16602C4.62677 9.16602 4.99986 9.53911 4.99986 9.99935V15.8327C4.99986 16.0537 5.08766 16.2657 5.24394 16.4219C5.40022 16.5782 5.61218 16.666 5.83319 16.666H14.1665C14.3875 16.666 14.5995 16.5782 14.7558 16.4219C14.9121 16.2657 14.9999 16.0537 14.9999 15.8327V9.99935C14.9999 9.53911 15.373 9.16602 15.8332 9.16602C16.2934 9.16602 16.6665 9.53911 16.6665 9.99935V15.8327C16.6665 16.4957 16.4031 17.1316 15.9343 17.6005C15.4655 18.0693 14.8296 18.3327 14.1665 18.3327H5.83319C5.17015 18.3327 4.53427 18.0693 4.06543 17.6005C3.59659 17.1316 3.33319 16.4957 3.33319 15.8327V9.99935C3.33319 9.53911 3.70629 9.16602 4.16653 9.16602Z" fill="#2ec1ed"/>
<path fill-rule="evenodd" clip-rule="evenodd" d="M9.16653 11.666C8.94552 11.666 8.73355 11.7538 8.57727 11.9101C8.42099 12.0664 8.3332 12.2783 8.3332 12.4993V17.4993C8.3332 17.9596 7.9601 18.3327 7.49986 18.3327C7.03962 18.3327 6.66653 17.9596 6.66653 17.4993V12.4993C6.66653 11.8363 6.92992 11.2004 7.39876 10.7316C7.8676 10.2627 8.50349 9.99935 9.16653 9.99935H10.8332C11.4962 9.99935 12.1321 10.2627 12.601 10.7316C13.0698 11.2004 13.3332 11.8363 13.3332 12.4993V17.4993C13.3332 17.9596 12.9601 18.3327 12.4999 18.3327C12.0396 18.3327 11.6665 17.9596 11.6665 17.4993V12.4993C11.6665 12.2783 11.5787 12.0664 11.4225 11.9101C11.2662 11.7538 11.0542 11.666 10.8332 11.666H9.16653Z" fill="#2ec1ed"/>
</svg>
