<svg width="17" height="17" viewBox="0 0 17 17" fill="none" xmlns="http://www.w3.org/2000/svg">
<path fill-rule="evenodd" clip-rule="evenodd" d="M3.1665 2.16662C2.94549 2.16662 2.73353 2.25442 2.57725 2.4107C2.42601 2.56194 2.33891 2.76532 2.33344 2.97859C2.5251 6.0152 3.81783 8.87805 5.96978 11.03C8.12174 13.182 10.9846 14.4747 14.0212 14.6663C14.2345 14.6609 14.4379 14.5738 14.5891 14.4225C14.7454 14.2663 14.8332 14.0543 14.8332 13.8333V11.0641L11.8493 9.87059L10.9644 11.3454C10.7413 11.7173 10.2702 11.8558 9.88124 11.664C7.90712 10.6904 6.30939 9.09267 5.33579 7.11855C5.14396 6.72959 5.28253 6.25851 5.65442 6.03538L7.1292 5.15051L5.93564 2.16662H3.1665ZM1.39874 1.23219C1.86758 0.763346 2.50346 0.499954 3.1665 0.499954H6.49984C6.84059 0.499954 7.14701 0.707413 7.27357 1.0238L8.94023 5.19046C9.09214 5.57022 8.94598 6.00409 8.59525 6.21453L7.20025 7.05153C7.8868 8.17122 8.82857 9.11299 9.94826 9.79954L10.7853 8.40454C10.9957 8.05381 11.4296 7.90765 11.8093 8.05956L15.976 9.72622C16.2924 9.85278 16.4998 10.1592 16.4998 10.5V13.8333C16.4998 14.4963 16.2364 15.1322 15.7676 15.6011C15.2988 16.0699 14.6629 16.3333 13.9998 16.3333C13.983 16.3333 13.9661 16.3328 13.9493 16.3318C10.4955 16.1219 7.23797 14.6552 4.79127 12.2085C2.34458 9.76183 0.877926 6.50428 0.668038 3.0505C0.667016 3.03367 0.666504 3.01682 0.666504 2.99995C0.666504 2.33691 0.929896 1.70103 1.39874 1.23219Z" fill="white"/>
</svg>
